<?xml version="1.0" encoding="utf-8"?>
<!-- Generator: Adobe Illustrator 17.1.0, SVG Export Plug-In . SVG Version: 6.00 Build 0)  -->
<!DOCTYPE svg PUBLIC "-//W3C//DTD SVG 1.1//EN" "http://www.w3.org/Graphics/SVG/1.1/DTD/svg11.dtd">
<svg version="1.1" id="Capa_1" xmlns="http://www.w3.org/2000/svg" xmlns:xlink="http://www.w3.org/1999/xlink" x="0px" y="0px"
	 viewBox="0 0 9.7 18" enable-background="new 0 0 9.7 18" xml:space="preserve">
<g opacity="0.7">
	<path fill="#FFFFFF" d="M9.4,0L7,0C4.4,0,2.7,1.7,2.7,4.4v2H0.4C0.2,6.5,0,6.6,0,6.8v3c0,0.2,0.2,0.4,0.4,0.4h2.3v7.5
		c0,0.2,0.2,0.4,0.4,0.4h3.1c0.2,0,0.4-0.2,0.4-0.4v-7.5h2.7c0.2,0,0.4-0.2,0.4-0.4l0-3c0-0.1,0-0.2-0.1-0.3
		C9.4,6.5,9.4,6.5,9.3,6.5H6.5V4.7c0-0.8,0.2-1.3,1.3-1.3l1.6,0c0.2,0,0.4-0.2,0.4-0.4V0.4C9.7,0.2,9.6,0,9.4,0z"/>
</g>
</svg>
