<?xml version="1.0" encoding="utf-8"?>
<!-- Generator: Adobe Illustrator 17.1.0, SVG Export Plug-In . SVG Version: 6.00 Build 0)  -->
<!DOCTYPE svg PUBLIC "-//W3C//DTD SVG 1.1//EN" "http://www.w3.org/Graphics/SVG/1.1/DTD/svg11.dtd">
<svg version="1.1" id="Capa_1" xmlns="http://www.w3.org/2000/svg" xmlns:xlink="http://www.w3.org/1999/xlink" x="0px" y="0px"
	 viewBox="20.1 0.4 18 18.1" enable-background="new 20.1 0.4 18 18.1" xml:space="preserve">
<g opacity="0.7">
	<g>
		<path fill="#FFFFFF" d="M35.7,0.4H22.6c-1.3,0-2.4,1.1-2.4,2.5V16c0,1.4,1.1,2.5,2.4,2.5h13.1c1.3,0,2.4-1.1,2.4-2.5V2.9
			C38.1,1.5,37,0.4,35.7,0.4z M29.1,13.9c-2.2,0-4-1.8-4-4c0-2.2,1.8-4,4-4c2.2,0,4,1.8,4,4C33.1,12.1,31.3,13.9,29.1,13.9z
			 M36.6,6.8H33C32,5.7,30.7,5,29.1,5c-1.5,0-2.9,0.7-3.8,1.8h-3.6V3.3c0-0.9,0.7-1.6,1.6-1.6H35c0.9,0,1.6,0.7,1.6,1.6V6.8z
			 M29.1,7.2c-1.4,0-2.6,1.2-2.6,2.6c0,1.4,1.2,2.6,2.6,2.6c1.4,0,2.6-1.2,2.6-2.6C31.7,8.4,30.5,7.2,29.1,7.2z M34.6,2.8h-1.6
			c-0.4,0-0.6,0.3-0.6,0.6V5c0,0.4,0.3,0.6,0.6,0.6h1.6c0.4,0,0.6-0.3,0.6-0.6V3.4C35.3,3,35,2.8,34.6,2.8z"/>
	</g>
</g>
</svg>
