<?xml version="1.0" encoding="utf-8"?><svg xmlns="http://www.w3.org/2000/svg" xmlns:xlink="http://www.w3.org/1999/xlink"><symbol viewBox="-5 -5 19.7 28" id="svg--FB-icon"><path fill="#FFF" d="M9.4 0H7C4.4 0 2.7 1.7 2.7 4.4v2H.4c-.2.1-.4.2-.4.4v3c0 .2.2.4.4.4h2.3v7.5c0 .2.2.4.4.4h3.1c.2 0 .4-.2.4-.4v-7.5h2.7c.2 0 .4-.2.4-.4v-3c0-.1 0-.2-.1-.3H6.5V4.7c0-.8.2-1.3 1.3-1.3h1.6c.2 0 .4-.2.4-.4V.4C9.7.2 9.6 0 9.4 0z" opacity=".7"/></symbol><symbol viewBox="15.1 -4.6 28 28.1" id="svg--instagram-icon"><path fill="#FFF" d="M35.7.4H22.6c-1.3 0-2.4 1.1-2.4 2.5V16c0 1.4 1.1 2.5 2.4 2.5h13.1c1.3 0 2.4-1.1 2.4-2.5V2.9c0-1.4-1.1-2.5-2.4-2.5zm-6.6 13.5c-2.2 0-4-1.8-4-4s1.8-4 4-4 4 1.8 4 4-1.8 4-4 4zm7.5-7.1H33C32 5.7 30.7 5 29.1 5c-1.5 0-2.9.7-3.8 1.8h-3.6V3.3c0-.9.7-1.6 1.6-1.6H35c.9 0 1.6.7 1.6 1.6v3.5zm-7.5.4c-1.4 0-2.6 1.2-2.6 2.6 0 1.4 1.2 2.6 2.6 2.6 1.4 0 2.6-1.2 2.6-2.6 0-1.4-1.2-2.6-2.6-2.6zm5.5-4.4H33c-.4 0-.6.3-.6.6V5c0 .4.3.6.6.6h1.6c.4 0 .6-.3.6-.6V3.4c.1-.4-.2-.6-.6-.6z" opacity=".7"/></symbol></svg>